# xmcd
#
# Track frame offsets: 
#        150
#        14542
#        32692
#        52147
#        71717
#        92642
#        112352
#        133707
#        154302
#        172535
#
# Disc length: 2534 seconds
#
# Revision: 0
# Processed by: cddbd v1.5.2PL0 Copyright (c) Steve Scherf et al.
# Submitted via: ExactAudioCopy v1.0b3
#
DISCID=8909e40a
DTITLE=美空ひばり - 水仙の詩 COCA-70240
DYEAR=1900
DGENRE=JPop
TTITLE0=哀しみにつよく
TTITLE1=雪を抱いて
TTITLE2=わたしは小鳥
TTITLE3=逢いたかったあなたに
TTITLE4=あなたでなければ
TTITLE5=笑ってよムーンライト
TTITLE6=まなざしの彼方
TTITLE7=昴
TTITLE8=恋人よ
TTITLE9=ラヴ・イズ・オーヴァー
EXTD=
EXTT0=
EXTT1=
EXTT2=
EXTT3=
EXTT4=
EXTT5=
EXTT6=
EXTT7=
EXTT8=
EXTT9=
PLAYORDER=
